HIERARCHY
ROOT Hips
{
  OFFSET 267.745 86.9975 -272.335
  CHANNELS 6 Xposition Yposition Zposition Zrotation Xrotation Yrotation
  JOINT LeftUpLeg
  {
    OFFSET 8.64259 1.95398 -2.38835
    CHANNELS 3 Zrotation Xrotation Yrotation
    JOINT LeftLeg
    {
      OFFSET 43.7702 0 0
      CHANNELS 3 Zrotation Xrotation Yrotation
      JOINT LeftFoot
      {
        OFFSET 40.6238 0 0
        CHANNELS 3 Zrotation Xrotation Yrotation
        JOINT LeftToeBase
        {
          OFFSET 12.7242 0 0
          CHANNELS 3 Zrotation Xrotation Yrotation
          End Site
          {
            OFFSET 0 0 0
          }
        }
      }
    }
  }
  JOINT RightUpLeg
  {
    OFFSET -8.2249 1.95398 -2.59336
    CHANNELS 3 Zrotation Xrotation Yrotation
    JOINT RightLeg
    {
      OFFSET 43.5653 0 0
      CHANNELS 3 Zrotation Xrotation Yrotation
      JOINT RightFoot
      {
        OFFSET 40.6238 0 0
        CHANNELS 3 Zrotation Xrotation Yrotation
        JOINT RightToeBase
        {
          OFFSET 12.7242 0 0
          CHANNELS 3 Zrotation Xrotation Yrotation
          End Site
          {
            OFFSET 0 0 0
          }
        }
      }
    }
  }
  JOINT Spine
  {
    OFFSET 0.165834 0.87714 6.61349
    CHANNELS 3 Zrotation Xrotation Yrotation
    JOINT Spine1
    {
      OFFSET 7.38963 1.71661e-005 0
      CHANNELS 3 Zrotation Xrotation Yrotation
      JOINT Spine2
      {
        OFFSET 11.9445 1.14441e-005 0
        CHANNELS 3 Zrotation Xrotation Yrotation
        JOINT Spine3
        {
          OFFSET 14.7254 4.19617e-005 0
          CHANNELS 3 Zrotation Xrotation Yrotation
          JOINT Spine4
          {
            OFFSET 10.9679 0 0
            CHANNELS 3 Zrotation Xrotation Yrotation
            JOINT RightShoulder
            {
              OFFSET 2.46616 -1.6653 3.69651
              CHANNELS 3 Zrotation Xrotation Yrotation
              JOINT RightArm
              {
                OFFSET 13.0012 0 0
                CHANNELS 3 Zrotation Xrotation Yrotation
                JOINT RightForeArm
                {
                  OFFSET 28.7848 1.52588e-005 0
                  CHANNELS 3 Zrotation Xrotation Yrotation
                  JOINT RightHand
                  {
                    OFFSET 26.5688 1.52588e-005 0
                    CHANNELS 3 Zrotation Xrotation Yrotation
                    End Site
                    {
                      OFFSET 0 0 0
                    }
                  }
                }
              }
            }
            JOINT LeftShoulder
            {
              OFFSET 2.38034 -1.29275 -3.7523
              CHANNELS 3 Zrotation Xrotation Yrotation
              JOINT LeftArm
              {
                OFFSET 16.3182 6.10352e-005 0
                CHANNELS 3 Zrotation Xrotation Yrotation
                JOINT LeftForeArm
                {
                  OFFSET 27.0901 0 0
                  CHANNELS 3 Zrotation Xrotation Yrotation
                  JOINT LeftHand
                  {
                    OFFSET 24.5451 1.52588e-005 0
                    CHANNELS 3 Zrotation Xrotation Yrotation
                    End Site
                    {
                      OFFSET 0 0 0
                    }
                  }
                }
              }
            }
            JOINT Neck
            {
              OFFSET 5.0226 -0.0266342 0
              CHANNELS 3 Zrotation Xrotation Yrotation
              JOINT Head
              {
                OFFSET 6.69364 2.86102e-005 0
                CHANNELS 3 Zrotation Xrotation Yrotation
                End Site
                {
                  OFFSET 0 0 0
                }
              }
            }
          }
        }
      }
    }
  }
}
MOTION
Frames:	7
Frame Time:	0.0416667
-57.1915 97.8403 -18.5016 118.449 -84.161 119.993 -176.191 -1.43562 88.1851 -8.50937 16.8842 1.95572 60.2107 4.46087 11.8801 33.063 -0.2015 -3.50085 177.211 4.92638 92.3671 -20.4103 -0.779624 -0.41427 65.5003 5.52804 19.5007 17.9677 2.40013 1.66877 -0.0666852 6.99192 -90.2079 12.8895 -0.232013 -0.387624 1.21849 -0.24885 -0.377036 -21.3163 -0.104791 -0.449062 -1.30363 -0.104795 -0.449055 101.565 -54.8997 -83.0539 30.2616 -0.268041 -7.02145 -0.0276672 -16.9321 -12.7574 -13.8359 -1.01948 3.45698 -82.9583 -48.7968 88.9845 -34.4244 1.465 -19.4498 -3.53072 44.0375 -0.00245258 0.00406084 -0.139074 -6.71015 3.25269 0.0757246 -5.83811 -19.8615 0.301699 5.43647 
-57.247 97.8005 -18.4879 118.627 -84.1716 120.026 -176.383 -1.37848 87.9626 -8.69786 17.1166 2.03335 60.1159 4.49549 12.4629 33.18 -0.133787 -4.49978 177.277 4.93289 92.2838 -20.3487 -0.916994 -0.510618 64.8644 6.07114 20.363 19.9812 2.45748 -1.40625 -0.0683479 7.00871 -90.2145 12.8558 -0.238394 -0.400139 1.1848 -0.255772 -0.389265 -21.3499 -0.107125 -0.449062 -1.33724 -0.107119 -0.449055 101.473 -54.6039 -83.1929 30.294 -0.310809 -7.01129 0.111977 -16.0319 -12.8205 -13.4751 -0.895555 2.60786 -83.1279 -49.4082 88.7827 -34.6578 0.309298 -19.5697 -2.81362 45.0898 -0.00249735 -0.00852516 -0.155902 -7.53054 4.10337 0.276568 -5.02134 -20.6096 0.466475 4.72864 
-57.2907 97.8177 -18.4233 117.845 -84.1548 119.27 -176.11 -0.725982 88.1426 -9.63938 18.0576 1.71448 59.4343 3.98364 13.7438 34.0155 -0.445939 -2.01785 177.256 4.8749 92.381 -20.2604 -1.93326 -0.390792 65.221 5.26504 18.7426 19.4945 2.22195 0.618539 -0.0751707 7.02619 -90.2104 12.8209 -0.249946 -0.390735 1.14992 -0.2669 -0.379366 -21.3848 -0.120963 -0.449062 -1.37217 -0.12096 -0.449055 101.553 -54.634 -83.0743 30.3143 -0.460051 -7.18296 0.28091 -15.5318 -12.7711 -14.1508 -0.837138 1.72393 -83.0655 -49.2166 88.8598 -35.5597 -0.729874 -20.0998 -1.97408 46.4636 -0.00255964 0.29972 -0.174208 -7.95872 5.19282 0.198028 -5.72719 -21.8593 0.369756 5.65844 
-57.3362 97.785 -18.3649 116.87 -84.1515 118.32 -176.125 -0.750476 88.1461 -9.52647 17.8254 1.74795 59.7036 4.24319 13.6951 32.8 -0.229258 -2.69946 177.368 4.90448 92.4632 -20.1777 -1.42326 -0.487502 65.0226 5.60157 19.4028 19.8123 2.44465 -1.12645 -0.0899075 7.02816 -90.2048 12.8169 -0.276539 -0.376387 1.14597 -0.292834 -0.363858 -21.3888 -0.150633 -0.441883 -1.37618 -0.15064 -0.441892 101.513 -54.6937 -83.1328 30.3693 -0.584507 -7.20554 0.393172 -15.3494 -12.7546 -14.5041 -0.884033 1.93605 -82.9356 -49.1225 89.0499 -35.6076 -0.651439 -20.0693 -1.95364 46.5814 -0.0025652 0.42512 -0.178765 -7.97915 5.01767 0.169782 -5.97306 -21.5854 0.358167 5.87144 
-57.3605 97.7512 -18.3364 115.125 -84.0729 116.565 -176.348 -0.774146 88.0506 -9.28801 17.953 1.92402 59.5523 4.24373 13.8271 34.6366 -0.475441 -2.76237 177.32 5.21465 92.441 -20.6387 -0.618509 -0.478442 65.1887 5.85523 20.1954 19.5101 2.22217 0.593276 -0.103946 7.01863 -90.2148 12.8359 -0.309272 -0.39235 1.16494 -0.326233 -0.378372 -21.3699 -0.177063 -0.467155 -1.35721 -0.177059 -0.467167 101.33 -54.5235 -83.404 30.568 -0.385816 -7.01163 0.309919 -15.477 -12.819 -14.5254 -0.902269 2.07389 -83.0169 -49.4676 88.9584 -35.1423 -0.506314 -20.0359 -2.17547 46.2936 -0.00255169 0.597557 -0.184192 -8.03217 4.346 0.0775332 -5.97343 -20.7646 0.209089 6.31996 
-57.4147 97.7307 -18.3056 115.507 -83.9944 116.954 -176.247 -0.71272 88.099 -9.59823 18.2027 1.87366 59.6814 4.35068 14.0506 35.2531 -0.551626 -2.90262 177.417 5.21657 92.5482 -20.8313 -0.134617 -0.582268 65.3947 5.76464 20.5012 19.8563 2.19201 0.274597 -0.114453 7.05026 -90.2071 12.7727 -0.326297 -0.375127 1.10175 -0.342494 -0.360398 -21.4331 -0.198481 -0.455849 -1.42047 -0.198471 -0.45584 101.313 -54.6545 -83.4272 30.4604 -0.679696 -7.07158 0.476995 -15.1426 -12.7566 -14.7677 -0.884438 1.80693 -82.9396 -49.3881 89.0687 -35.2433 -0.61149 -20.1128 -2.08889 46.2039 -0.00254752 0.415293 -0.190408 -8.46669 4.52705 0.118187 -5.65527 -20.9378 0.28082 5.72138 
-57.5286 97.6675 -18.2603 116.702 -83.8365 118.127 -175.935 -1.15953 88.3117 -9.11997 18.6284 1.67586 59.8454 4.66729 14.354 34.7873 -0.517316 -2.59146 177.289 5.37095 92.5467 -21.5317 0.592918 -0.498074 65.3367 6.01519 21.0864 20.5208 2.09932 -0.175233 -0.109289 7.10636 -90.2034 12.6605 -0.314112 -0.369566 0.989549 -0.330072 -0.35539 -21.5453 -0.188531 -0.446882 -1.53268 -0.188524 -0.446885 101.37 -54.5354 -83.3455 30.8362 -0.415263 -7.08443 0.284105 -15.4018 -12.9374 -14.7487 -0.900904 1.94982 -83.0804 -49.3481 88.8498 -35.4049 -0.85322 -20.3485 -1.87909 46.3743 -0.00255546 0.166764 -0.187601 -8.76005 5.20245 -0.0325442 -6.17751 -21.8464 0.11985 6.3334 
